<svg width="91" height="91" viewBox="0 0 91 91" fill="none" xmlns="http://www.w3.org/2000/svg">
<rect width="91" height="91" rx="20.21" fill="white"/>
<g filter="url(#filter0_d_0_1)">
<path d="M29.649 52.9655H44.649L37.2007 33.7241L29.649 52.9655ZM44.3386 25.6552L60.1662 69H50.2352L46.6145 58.7586H27.6835L24.1662 69H14.2352L29.9593 25.6552H44.3386ZM63.1854 69V25.6552H73.1164V69H63.1854Z" fill="#1E90FF"/>
<path d="M29.649 52.9655H44.649L37.2007 33.7241L29.649 52.9655ZM44.3386 25.6552L60.1662 69H50.2352L46.6145 58.7586H27.6835L24.1662 69H14.2352L29.9593 25.6552H44.3386ZM63.1854 69V25.6552H73.1164V69H63.1854Z" fill="#4F7FFF" fill-opacity="0.7"/>
</g>
<defs>
<filter id="filter0_d_0_1" x="10.2352" y="25.6552" width="66.8812" height="51.3448" filterUnits="userSpaceOnUse" color-interpolation-filters="sRGB">
<feFlood flood-opacity="0" result="BackgroundImageFix"/>
<feColorMatrix in="SourceAlpha" type="matrix" values="0 0 0 0 0 0 0 0 0 0 0 0 0 0 0 0 0 0 127 0" result="hardAlpha"/>
<feOffset dy="4"/>
<feGaussianBlur stdDeviation="2"/>
<feComposite in2="hardAlpha" operator="out"/>
<feColorMatrix type="matrix" values="0 0 0 0 0 0 0 0 0 0 0 0 0 0 0 0 0 0 0.25 0"/>
<feBlend mode="normal" in2="BackgroundImageFix" result="effect1_dropShadow_0_1"/>
<feBlend mode="normal" in="SourceGraphic" in2="effect1_dropShadow_0_1" result="shape"/>
</filter>
</defs>
</svg>
